<?xml version="1.0" encoding="utf-8"?>
<!-- Generator: Adobe Illustrator 14.0.0, SVG Export Plug-In . SVG Version: 6.00 Build 43363)  -->
<!DOCTYPE svg PUBLIC "-//W3C//DTD SVG 1.1//EN" "http://www.w3.org/Graphics/SVG/1.1/DTD/svg11.dtd">
<svg version="1.1" id="Layer_1" xmlns="http://www.w3.org/2000/svg" xmlns:xlink="http://www.w3.org/1999/xlink" x="0px" y="0px"
	 width="200px" height="200px" viewBox="0 0 200 200" enable-background="new 0 0 200 200" xml:space="preserve">
<g>
	<rect x="0.001" fill="#939598" width="26.542" height="27.705"/>
	<rect x="45.5" fill="#939598" width="26.543" height="27.705"/>
	<rect x="90.997" fill="#54B948" width="26.542" height="27.705"/>
	<path fill="#939598" d="M26.542,139.016C10.269,142.529,0,151.878,0,151.878V47.492h26.542V139.016"/>
	<path fill="#939598" d="M72.512,84.068V47.492H45.499v91.523c0,0,8.609-2.67,35.903,7.557
		C75.504,131.462,73.07,105.378,72.512,84.068"/>
	<path fill="#939598" d="M100.653,176.001c-11.49-8.356-33.884-21.491-63.316-20.138c-24.863,1.141-37.335,23-37.335,23V200H137.93
		C137.93,200,116.868,187.787,100.653,176.001"/>
	<path fill="#54B948" d="M135.547,0v27.702h44.547v140.997c-65.581-5.956-62.557-70.744-62.557-70.744V47.492H90.998v50.463
		c0,0-1.388,35.723,25.05,64.672C142.488,191.581,200,189.726,200,189.726V0H135.547"/>
	<path fill="#54B948" d="M135.547,47.492v54.241c0.078,20.708,14.914,38.262,26.541,42.795V47.492H135.547"/>
</g>
</svg>
